<svg width="40" height="50" viewBox="0 0 40 50" xmlns="http://www.w3.org/2000/svg">
  <defs>
    <filter id="shadow" x="-20%" y="-20%" width="140%" height="140%">
      <feGaussianBlur in="SourceAlpha" stdDeviation="3"/>
      <feOffset dx="0" dy="3" result="offsetblur"/>
      <feComponentTransfer>
        <feFuncA type="linear" slope="0.5"/>
      </feComponentTransfer>
      <feMerge>
        <feMergeNode/>
        <feMergeNode in="SourceGraphic"/>
      </feMerge>
    </filter>
  </defs>
  
  <!-- Main marker shape -->
  <path d="M20 0C9 0 0 9 0 20C0 31 20 50 20 50C20 50 40 31 40 20C40 9 31 0 20 0Z" 
        fill="#10b981" filter="url(#shadow)"/>
  
  <!-- Inner circle -->
  <circle cx="20" cy="20" r="14" fill="#059669"/>
  
  <!-- Futsal ball symbol -->
  <circle cx="20" cy="20" r="8" fill="white"/>
  <path d="M20 12 L20 28 M12 20 L28 20 M14 14 L26 26 M14 26 L26 14" 
        stroke="black" stroke-width="1.5" fill="none"/>
        
  <!-- Price tag at bottom -->
  <rect x="10" y="38" width="20" height="8" rx="4" fill="white" filter="url(#shadow)"/>
  <text x="20" y="44.5" font-family="Arial" font-size="6" font-weight="bold" 
        text-anchor="middle" fill="#059669">Rs.1200</text>
</svg>